<?xml version="1.0" encoding="UTF-8"?>
<svg width="72px" height="72px" viewBox="0 0 72 72" version="1.1" xmlns="http://www.w3.org/2000/svg" xmlns:xlink="http://www.w3.org/1999/xlink">
    <title>home_nav_quickart_press</title>
    <defs>
        <rect id="path-1" x="0" y="0" width="72" height="72"></rect>
        <path d="M29.9564074,1.79372035 C30.5057837,2.07861858 30.9536097,2.5264446 31.2385079,3.07582085 L38.9908288,18.0248114 L53.9398194,25.7771323 C55.4106594,26.5398877 55.9846753,28.3505745 55.2219199,29.8214145 C54.9370217,30.3707907 54.4891957,30.8186168 53.9398194,31.103515 L38.9908288,38.8558359 L31.2385079,53.8048265 C30.4757525,55.2756664 28.6650657,55.8496824 27.1942258,55.086927 C26.6448495,54.8020287 26.1970235,54.3542027 25.9121253,53.8048265 L18.1598044,38.8558359 L3.2108138,31.103515 C1.73997384,30.3407596 1.16595789,28.5300728 1.9287133,27.0592328 C2.21361153,26.5098566 2.66143755,26.0620306 3.2108138,25.7771323 L18.1598044,18.0248114 L25.9121253,3.07582085 C26.6748807,1.60498089 28.4855675,1.03096494 29.9564074,1.79372035 Z M53.7346545,43.7615393 C53.8517347,43.8222554 53.947173,43.9176937 54.007889,44.0347739 L55.660023,47.2206243 L58.8458734,48.8727583 C59.1593311,49.0353127 59.2816624,49.4211968 59.119108,49.7346545 C59.058392,49.8517347 58.9629536,49.947173 58.8458734,50.007889 L55.660023,51.660023 L54.007889,54.8458734 C53.8453346,55.1593311 53.4594505,55.2816624 53.1459928,55.119108 C53.0289126,55.058392 52.9334743,54.9629536 52.8727583,54.8458734 L51.2206243,51.660023 L48.0347739,50.007889 C47.7213162,49.8453346 47.5989849,49.4594505 47.7615393,49.1459928 C47.8222554,49.0289126 47.9176937,48.9334743 48.0347739,48.8727583 L51.2206243,47.2206243 L52.8727583,44.0347739 C53.0353127,43.7213162 53.4211968,43.5989849 53.7346545,43.7615393 Z M8.35657031,0.101698021 C8.5221467,0.187563435 8.65711688,0.32253362 8.7429823,0.488110004 L11.0137535,4.86689382 L15.3925373,7.13766502 C15.8358334,7.3675517 16.008836,7.91327419 15.7789493,8.35657031 C15.6930839,8.5221467 15.5581137,8.65711688 15.3925373,8.7429823 L11.0137535,11.0137535 L8.7429823,15.3925373 C8.51309562,15.8358334 7.96737313,16.008836 7.524077,15.7789493 C7.35850062,15.6930839 7.22353043,15.5581137 7.13766502,15.3925373 L4.86689382,11.0137535 L0.488110004,8.7429823 C0.0448138783,8.51309562 -0.128188659,7.96737313 0.101698021,7.524077 C0.187563435,7.35850062 0.32253362,7.22353043 0.488110004,7.13766502 L4.86689382,4.86689382 L7.13766502,0.488110004 C7.3675517,0.0448138783 7.91327419,-0.128188659 8.35657031,0.101698021 Z" id="path-3"></path>
    </defs>
    <g id="2.3.1.0-定稿" stroke="none" stroke-width="1" fill="none" fill-rule="evenodd">
        <g id="首页切图" transform="translate(-116.000000, -1588.000000)">
            <g id="编组-10" transform="translate(116.000000, 1588.000000)">
                <mask id="mask-2" fill="white">
                    <use xlink:href="#path-1"></use>
                </mask>
                <g id="矩形"></g>
                <g id="编组-19" mask="url(#mask-2)">
                    <g transform="translate(6.000000, 8.000000)">
                        <mask id="mask-4" fill="white">
                            <use xlink:href="#path-3"></use>
                        </mask>
                        <use id="形状结合" stroke="none" fill="#000000" fill-rule="nonzero" xlink:href="#path-3"></use>
                        <circle id="椭圆形" stroke="none" fill="#FFDA73" fill-rule="evenodd" mask="url(#mask-4)" cx="49.5" cy="10.5" r="28.5"></circle>
                        <circle id="椭圆形" stroke="none" fill="#FFE100" fill-rule="evenodd" mask="url(#mask-4)" cx="45.5" cy="46.5" r="28.5"></circle>
                        <circle id="椭圆形" stroke="none" fill="#F96870" fill-rule="evenodd" mask="url(#mask-4)" cx="13.5" cy="-4.5" r="28.5"></circle>
                        <circle id="椭圆形" stroke="none" fill="#B259FF" fill-rule="evenodd" mask="url(#mask-4)" cx="0" cy="58" r="25"></circle>
                        <circle id="椭圆形" stroke="none" fill="#FFFFFF" fill-rule="evenodd" mask="url(#mask-4)" cx="49" cy="7" r="13"></circle>
                        <circle id="椭圆形" stroke="none" fill="#000000" fill-rule="evenodd" mask="url(#mask-4)" cx="9.5" cy="50" r="9"></circle>
                    </g>
                </g>
            </g>
        </g>
    </g>
</svg>