<?xml version="1.0" encoding="UTF-8"?>
<svg width="72px" height="72px" viewBox="0 0 72 72" version="1.1" xmlns="http://www.w3.org/2000/svg" xmlns:xlink="http://www.w3.org/1999/xlink">
    <title>home_nav_explore</title>
    <defs>
        <rect id="path-1" x="0" y="0" width="72" height="72"></rect>
        <path d="M55.8362269,1.50383881 C55.8343017,1.02118828 55.7576633,0.617284951 55.6523849,0.252788476 C53.6292234,-0.283888614 50.9943468,0.333396337 48.7666615,1.41698432 C48.3099469,1.63847329 47.2271972,2.29908577 45.6234918,3.27707945 C44.9602645,3.68297637 44.3753994,4.03943206 44.1171093,4.1864268 C44.0921819,4.20098007 44.0776631,4.22782724 44.0549898,4.24238051 C39.6781802,1.57029219 34.5591845,0 29.0686649,0 C13.1149456,0 0.137064476,13.0087042 0.137064476,28.9998339 C0.137064476,34.3608897 1.6209726,39.3696764 4.16064781,43.6803045 C1.16001498,48.3162216 -0.32780462,51.6634758 0.0607574996,53.9319266 C0.141174777,54.3959038 0.938983399,54.4701986 1.37700247,54.4701986 C10.3168477,54.4701986 30.750666,34.8062599 33.2925954,32.2997733 C44.5178036,21.2319714 55.8425224,7.70147559 55.8362269,1.50383881 L55.8362269,1.50383881 Z M15.6359917,35.3883246 C12.7882379,35.3883246 10.4696605,33.0662459 10.4696605,30.209816 C10.4696605,27.3553133 12.7883042,25.0312411 15.6359917,25.0312411 C18.4837455,25.0312411 20.8022565,27.3553798 20.8022565,30.209816 C20.8022565,33.0662459 18.4837454,35.3883246 15.6359917,35.3883246 L15.6359917,35.3883246 Z M24.7287823,20.8883412 C21.3106159,20.8883412 18.529092,18.0999596 18.529092,14.6740911 C18.529092,11.2478239 21.3106159,8.45970809 24.7287823,8.45970809 C28.1470149,8.45970809 30.9284725,11.2478239 30.9284725,14.6740911 C30.9284725,18.0999595 28.1469486,20.8883412 24.7287823,20.8883412 L24.7287823,20.8883412 Z M53.7140163,13.8888786 C49.3804981,20.3393703 42.5671702,28.0845057 35.77035,34.7833335 C33.9206194,36.6084077 22.7078748,47.5000418 13.2906306,53.3040755 C13.2988513,53.2977624 13.3050832,53.2936423 13.3133039,53.2895222 C17.8515448,56.2577931 23.2574705,58 29.0686648,58 C45.0220526,58 58,44.9913622 58,28.9997674 C57.997746,23.4590882 56.4147913,18.2969272 53.7140163,13.8888786 L53.7140163,13.8888786 Z M37.1899508,47.6429164 C34.9107533,47.6429164 33.0569786,45.784682 33.0569786,43.500083 C33.0569786,41.2152182 34.9107533,39.3569838 37.1899508,39.3569838 C39.4694134,39.3569838 41.3229229,41.2152182 41.3229229,43.500083 C41.3229229,45.784682 39.4694134,47.6429164 37.1899508,47.6429164 L37.1899508,47.6429164 Z" id="path-3"></path>
    </defs>
    <g id="2.3.1.0-定稿" stroke="none" stroke-width="1" fill="none" fill-rule="evenodd">
        <g id="首页切图" transform="translate(-206.000000, -1678.000000)">
            <g id="home_nav_explore" transform="translate(206.000000, 1678.000000)">
                <mask id="mask-2" fill="white">
                    <use xlink:href="#path-1"></use>
                </mask>
                <g id="矩形"></g>
                <g id="编组-5" mask="url(#mask-2)">
                    <g transform="translate(7.000000, 8.000000)">
                        <mask id="mask-4" fill="white">
                            <use xlink:href="#path-3"></use>
                        </mask>
                        <use id="形状" stroke="none" fill="#656566" fill-rule="nonzero" xlink:href="#path-3"></use>
                    </g>
                </g>
            </g>
        </g>
    </g>
</svg>