<?xml version="1.0" encoding="UTF-8"?>
<svg width="72px" height="72px" viewBox="0 0 72 72" version="1.1" xmlns="http://www.w3.org/2000/svg" xmlns:xlink="http://www.w3.org/1999/xlink">
    <title>home_nav_studio</title>
    <defs>
        <rect id="path-1" x="0" y="0" width="72" height="72"></rect>
    </defs>
    <g id="2.3.1.0-定稿" stroke="none" stroke-width="1" fill="none" fill-rule="evenodd">
        <g id="首页切图" transform="translate(-386.000000, -1678.000000)">
            <g id="home_nav_studio" transform="translate(386.000000, 1678.000000)">
                <mask id="mask-2" fill="white">
                    <use xlink:href="#path-1"></use>
                </mask>
                <g id="矩形"></g>
                <path d="M51.7168421,7 C54.2027253,7 56.400385,8.61940878 57.142421,10.99855 L62.4827369,28.13845 C62.8256395,29.2390459 63,30.3854399 63,31.5385 L63,58.3 C63,59.811734 62.4011296,61.2615513 61.3351333,62.3305086 C60.269137,63.399466 58.8233359,64 57.3157895,64 L14.6842105,64 C13.1766641,64 11.730863,63.399466 10.6648667,62.3305086 C9.59887044,61.2615513 9,59.811734 9,58.3 L9,31.5385 C9,30.3854399 9.17436055,29.2390459 9.51726314,28.13845 L14.860421,10.99855 C15.6021438,8.62041277 17.798324,7.00102076 20.2831579,7 L51.7168421,7 Z M44.5263158,38.35 L27.4736842,38.35 C25.9042027,38.350241 24.632014,39.6261588 24.632014,41.2 C24.632014,42.7738412 25.9042027,44.049759 27.4736842,44.05 L44.5263158,44.05 C46.0957973,44.049759 47.367986,42.7738412 47.367986,41.2 C47.367986,39.6261588 46.0957973,38.350241 44.5263158,38.35 L44.5263158,38.35 Z M49.8950526,14.1249998 L22.1049474,14.1249998 C21.1915296,14.1246015 20.3665487,14.6723748 20.0103158,15.5158 L19.9108421,15.8065 L16.1052631,29.8 L55.8947369,29.8 L52.0863158,15.8065 C51.81729,14.8148298 50.9199148,14.1262149 49.8950526,14.1249998 L49.8950526,14.1249998 Z" id="形状" fill="#656566" fill-rule="nonzero" mask="url(#mask-2)"></path>
            </g>
        </g>
    </g>
</svg>