<?xml version="1.0" encoding="UTF-8"?>
<svg width="72px" height="72px" viewBox="0 0 72 72" version="1.1" xmlns="http://www.w3.org/2000/svg" xmlns:xlink="http://www.w3.org/1999/xlink">
    <title>btn_nav_back</title>
    <g id="设计稿" stroke="none" stroke-width="1" fill="none" fill-rule="evenodd">
        <g id="设置界面" transform="translate(-48.000000, -123.000000)">
            <g id="编组-3" transform="translate(0.000000, 72.000000)">
                <g id="btn_nav_back" transform="translate(48.000000, 51.000000)">
                    <rect id="矩形" x="0" y="0" width="72" height="72"></rect>
                    <circle id="椭圆形" fill-opacity="0.3" fill="#000000" cx="36" cy="36" r="36"></circle>
                    <path d="M26.6213203,20.5 C28.2781746,20.5 29.6213203,21.8431458 29.6213203,23.5 L29.6203203,44.499 L50.6213203,44.5 C52.2781746,44.5 53.6213203,45.8431458 53.6213203,47.5 C53.6213203,49.1568542 52.2781746,50.5 50.6213203,50.5 L26.6513738,50.4998526 C26.6413676,50.4999508 26.6313497,50.5 26.6213203,50.5 C24.9644661,50.5 23.6213203,49.1568542 23.6213203,47.5 L23.6213203,23.5 C23.6213203,21.8431458 24.9644661,20.5 26.6213203,20.5 Z" id="形状结合" fill-opacity="0.701083097" fill="#FFFFFF" transform="translate(38.621320, 35.500000) rotate(-315.000000) translate(-38.621320, -35.500000) "></path>
                </g>
            </g>
        </g>
    </g>
</svg>