<?xml version="1.0" encoding="UTF-8"?>
<svg width="60px" height="60px" viewBox="0 0 60 60" version="1.1" xmlns="http://www.w3.org/2000/svg" xmlns:xlink="http://www.w3.org/1999/xlink">
    <title>setting_ic_member@2x</title>
    <defs>
        <rect id="path-1" x="0" y="0" width="60" height="60"></rect>
    </defs>
    <g id="设计稿" stroke="none" stroke-width="1" fill="none" fill-rule="evenodd">
        <g id="设置界面" transform="translate(-108.000000, -1167.000000)">
            <g id="编组-3" transform="translate(48.000000, 306.000000)">
                <g id="编组-2备份-3" transform="translate(0.000000, 810.000000)">
                    <g id="setting_ic_member" transform="translate(60.000000, 51.000000)">
                        <mask id="mask-2" fill="white">
                            <use xlink:href="#path-1"></use>
                        </mask>
                        <g id="矩形"></g>
                        <g id="ic/设置/语言" mask="url(#mask-2)">
                            <g transform="translate(8.398747, 8.458316)" id="编组-3">
                                <path d="M22.3183049,-2.00032392 C23.3832969,-2.34708793 24.4722631,-2.04922829 25.1514862,-1.67245388 L39.5942613,7.72898003 C40.3648543,8.45038238 40.8960811,9.22920955 40.9365051,10.2394415 L42.4098191,26.5796283 C42.4355473,27.3925524 42.1918444,28.2108314 41.8050211,28.6913782 L33.9772686,36.0497609 L33.9772686,46.429914 L26.6377472,41.7592968 L9.68210006,39.4295346 C9.13818977,39.4033552 8.6136654,39.2583098 8.17883224,39.0098337 C7.66932141,38.7186846 7.25289416,38.2973433 6.99035251,37.717067 L-1.52671652,23.8277062 C-1.86758661,23.4017175 -2.06751156,22.9065359 -2.13553743,22.3623502 C-2.1985487,21.8582798 -2.13752712,21.2951584 -1.94127024,20.7345964 L4.12448922,5.09843896 C4.39957512,4.48368852 4.95973394,3.7889005 6.00113062,3.1667976 Z" id="路径" stroke="#ECECEC" stroke-width="4.32"></path>
                                <path d="M21.9896318,10.759161 L24.3359489,15.5133188 C24.8603322,16.5758353 25.8739683,17.3122851 27.0465249,17.4826675 L32.2930495,18.2450322 L28.4966286,21.9456279 C27.6481587,22.7726817 27.2609842,23.9642824 27.4612808,25.1321011 L28.3574942,30.3574262 L23.6648598,27.8903623 C22.6160934,27.3389931 21.3631702,27.3389931 20.3144037,27.8903623 L15.6217694,30.3574262 L16.5179828,25.1321011 C16.7182794,23.9642824 16.3311048,22.7726817 15.4826349,21.9456279 L11.686214,18.2450322 L16.9327387,17.4826675 C18.1052953,17.3122851 19.1189314,16.5758353 19.6433146,15.5133188 L21.9896318,10.759161 Z" id="星形" stroke="#ECECEC" stroke-width="4.32" transform="translate(21.989632, 20.092235) rotate(-345.000000) translate(-21.989632, -20.092235) "></path>
                            </g>
                        </g>
                    </g>
                </g>
            </g>
        </g>
    </g>
</svg>