<?xml version="1.0" encoding="UTF-8"?>
<svg width="72px" height="72px" viewBox="0 0 72 72" version="1.1" xmlns="http://www.w3.org/2000/svg" xmlns:xlink="http://www.w3.org/1999/xlink">
    <title>setting_ic_discord</title>
    <g id="设计稿" stroke="none" stroke-width="1" fill="none" fill-rule="evenodd">
        <g id="设置界面" transform="translate(-102.000000, -351.000000)">
            <g id="编组-3" transform="translate(48.000000, 306.000000)">
                <g id="setting_ic_discord" transform="translate(54.000000, 45.000000)">
                    <rect id="矩形" fill="#5864F2" x="0" y="0" width="72" height="72" rx="24"></rect>
                    <path d="M52.6965403,21.4404562 C52.6831991,21.4150087 52.6610898,21.3950681 52.6341727,21.3842061 C49.5220617,19.9786467 46.2378923,18.9763728 42.8638526,18.4024668 C42.8009805,18.3909608 42.7376994,18.4204387 42.7068724,18.4755919 C42.2596712,19.2745761 41.8537114,20.0952644 41.4905416,20.9345264 C37.8535111,20.3910551 34.1539824,20.3910551 30.5169519,20.9345264 C30.1513778,20.0931333 29.7389125,19.2722404 29.2814374,18.4755919 C29.2493265,18.4217581 29.1870213,18.3927499 29.1243756,18.4024668 C25.7499792,18.9751679 22.4655966,19.9775172 19.3538921,21.3842864 C19.3272547,21.3954027 19.3047786,21.4143829 19.2895654,21.438608 C13.0667679,30.5863264 11.3621089,39.5091246 12.1983567,48.3214315 C12.2031098,48.3650683 12.2256449,48.4049396 12.2608059,48.4319228 C15.8842832,51.0729094 19.9371864,53.0887947 24.2465625,54.3935532 C24.3087154,54.4119062 24.3759052,54.3902336 24.4149712,54.3392317 C25.3405317,53.099543 26.1606478,51.7868224 26.8669799,50.4144187 C26.8866111,50.3763257 26.8887478,50.3317849 26.8728504,50.2920404 C26.8569529,50.2522959 26.8245407,50.2211458 26.7837959,50.2064539 C25.4905327,49.7193547 24.2385029,49.1321683 23.0394562,48.450405 C22.995223,48.4248082 22.9668609,48.3791925 22.9638296,48.3287723 C22.9607983,48.2783521 22.9834967,48.2297618 23.0243541,48.199208 C23.2766625,48.0136874 23.5245931,47.8224665 23.7679485,47.6256977 C23.8114848,47.5904007 23.8715771,47.5824305 23.9230511,47.6051262 C31.7785074,51.1341793 40.2831088,51.1341793 48.0455851,47.6051262 C48.0972159,47.5809668 48.1583671,47.5882566 48.2026469,47.6238495 C48.4462789,47.8216586 48.6948456,48.0135035 48.9481189,48.199208 C48.9891948,48.2294484 49.0122519,48.2778562 49.0095973,48.32828 C49.0069427,48.3787039 48.9789257,48.4245062 48.9348944,48.450405 C47.7385743,49.1379033 46.4854095,49.724722 45.1887587,50.2046057 C45.1480338,50.2198611 45.1158446,50.2514796 45.1002598,50.2915354 C45.0846751,50.3315912 45.0871725,50.3762869 45.1071258,50.4144187 C45.8252834,51.7791902 46.6441918,53.0902571 47.5572569,54.337062 C47.5952622,54.3895129 47.663082,54.4121654 47.7256656,54.3933121 C52.0427639,53.0929772 56.1027508,51.0769044 59.7307692,48.4319228 C59.766506,48.406249 59.7892644,48.3666561 59.7932184,48.3232797 C60.7943648,38.1353356 58.1171308,29.2856625 52.6965403,21.4404562 L52.6965403,21.4404562 Z M27.5997633,42.4 C25.18757,42.4 23.2,40.2457529 23.2,37.600081 C23.2,34.9544092 25.1490209,32.8 27.5997633,32.8 C30.0696554,32.8 32.0379924,34.9731263 31.9994433,37.599919 C31.9994433,40.2457529 30.0503392,42.4 27.5997633,42.4 L27.5997633,42.4 Z M43.59968,42.4 C41.18757,42.4 39.2,40.2457529 39.2,37.600081 C39.2,34.9544092 41.1490209,32.8 43.59968,32.8 C46.0697386,32.8 48.0379924,34.9731263 47.9994433,37.599919 C47.9994433,40.2457529 46.0697386,42.4 43.59968,42.4 Z" id="形状" fill="#FFFFFF" fill-rule="nonzero"></path>
                </g>
            </g>
        </g>
    </g>
</svg>