<?xml version="1.0" encoding="UTF-8"?>
<svg width="60px" height="60px" viewBox="0 0 60 60" version="1.1" xmlns="http://www.w3.org/2000/svg" xmlns:xlink="http://www.w3.org/1999/xlink">
    <title>setting_ic_followus@2x</title>
    <defs>
        <rect id="path-1" x="0" y="0" width="60" height="60"></rect>
    </defs>
    <g id="设计稿" stroke="none" stroke-width="1" fill="none" fill-rule="evenodd">
        <g id="设置界面" transform="translate(-108.000000, -1329.000000)">
            <g id="编组-3" transform="translate(48.000000, 306.000000)">
                <g id="编组-2备份-4" transform="translate(0.000000, 972.000000)">
                    <g id="setting_ic_followus" transform="translate(60.000000, 51.000000)">
                        <mask id="mask-2" fill="white">
                            <use xlink:href="#path-1"></use>
                        </mask>
                        <g id="矩形"></g>
                        <g id="ic/设置/语言" mask="url(#mask-2)">
                            <g transform="translate(8.285714, 14.725714)" id="编组">
                                <path d="M22.1538044,3.36635174 L20.9949395,4.5110581 L19.8360745,3.36137476 C15.3220676,-1.10298004 7.97921562,-1.12288797 3.44496656,3.32155888 L3.4044822,3.36137476 C-1.1348274,7.84563749 -1.1348274,15.0971034 3.4044822,19.5863431 L19.1225375,35.348452 C20.1397072,36.3637567 21.7995662,36.3786877 22.8369781,35.3832909 L22.872402,35.348452 L38.5955178,19.5863431 C43.1348274,15.1020804 43.1348274,7.85061447 38.5955178,3.36137476 C34.0815109,-1.10298004 26.738659,-1.12288797 22.2044099,3.3165819 L22.1538044,3.36635174 Z" id="路径" stroke="#ECECEC" stroke-width="4.32"></path>
                                <path d="M16.4213925,9.15296537 C17.525962,9.15296537 18.4213925,10.0483959 18.4213925,11.1529654 L18.4213925,16.1519654 L27.4213925,16.1529654 C28.525962,16.1529654 29.4213925,17.0483959 29.4213925,18.1529654 C29.4213925,19.2575349 28.525962,20.1529654 27.4213925,20.1529654 L16.4213925,20.1529654 C15.316823,20.1529654 14.4213925,19.2575349 14.4213925,18.1529654 C14.4213925,17.9803087 14.4432708,17.8127619 14.4844062,17.6529461 C14.4433624,17.4938699 14.4213925,17.3259833 14.4213925,17.1529654 L14.4213925,11.1529654 C14.4213925,10.0483959 15.316823,9.15296537 16.4213925,9.15296537 Z" id="形状结合" fill="#ECECEC" transform="translate(21.921392, 14.652965) rotate(-45.000000) translate(-21.921392, -14.652965) "></path>
                            </g>
                        </g>
                    </g>
                </g>
            </g>
        </g>
    </g>
</svg>