<?xml version="1.0" encoding="UTF-8"?>
<svg width="60px" height="60px" viewBox="0 0 60 60" version="1.1" xmlns="http://www.w3.org/2000/svg" xmlns:xlink="http://www.w3.org/1999/xlink">
    <title>setting_ic_rateus@2x</title>
    <defs>
        <rect id="path-1" x="0" y="0" width="60" height="60"></rect>
    </defs>
    <g id="设计稿" stroke="none" stroke-width="1" fill="none" fill-rule="evenodd">
        <g id="设置界面" transform="translate(-108.000000, -681.000000)">
            <g id="编组-3" transform="translate(48.000000, 306.000000)">
                <g id="编组-2" transform="translate(0.000000, 324.000000)">
                    <g id="setting_ic_rateus" transform="translate(60.000000, 51.000000)">
                        <mask id="mask-2" fill="white">
                            <use xlink:href="#path-1"></use>
                        </mask>
                        <g id="矩形"></g>
                        <g id="ic/设置/语言" mask="url(#mask-2)">
                            <g transform="translate(2.857143, 4.285714)">
                                <path d="M27.1428571,44.5199766 L12.961701,48.5926938 C12.1973098,48.812221 11.3996862,48.3705214 11.180159,47.6061301 C11.1476339,47.492878 11.1291321,47.376062 11.1250685,47.2583021 L10.6162345,32.5126824 L10.6162345,32.5126824 L2.360632,20.2841403 C1.91563932,19.6249986 2.08924139,18.7299208 2.74838307,18.2849282 C2.84604137,18.2189981 2.9514226,18.1653037 3.06216322,18.1250492 L16.9288426,13.0844722 L16.9288426,13.0844722 L26.0077558,1.45410036 C26.4971265,0.82720119 27.402042,0.715712331 28.0289412,1.20508303 C28.1218224,1.27758809 28.2054534,1.36121911 28.2779585,1.45410036 L37.3568717,13.0844722 L37.3568717,13.0844722 L51.2235511,18.1250492 C51.9709915,18.3967459 52.3566579,19.2229197 52.0849613,19.9703601 C52.0447067,20.0811007 51.9910123,20.186482 51.9250823,20.2841403 L43.6694798,32.5126824 L43.6694798,32.5126824 L43.1606458,47.2583021 C43.1332187,48.0531191 42.4666582,48.6752114 41.6718412,48.6477843 C41.5540813,48.6437207 41.4372653,48.6252189 41.3240132,48.5926938 L27.1428571,44.5199766 L27.1428571,44.5199766 Z" id="星形" stroke="#ECECEC" stroke-width="4.32"></path>
                                <g id="编组" stroke="none" stroke-width="1" fill-rule="evenodd" transform="translate(15.714286, 21.428571)" stroke-linecap="round">
                                    <g id="编组-2" stroke="#ECECEC" stroke-width="4.32">
                                        <path d="M0,2.85714286 C1.87696432,0.250476813 4.2579167,-0.572578417 7.14285714,0.387977169" id="路径-7"></path>
                                        <path d="M17.1428571,2.85714286 C19.0198215,0.250476813 21.4007738,-0.572578417 24.2857143,0.387977169" id="路径-7备份" transform="translate(20.714286, 1.428571) scale(-1, 1) translate(-20.714286, -1.428571) "></path>
                                    </g>
                                </g>
                            </g>
                        </g>
                    </g>
                </g>
            </g>
        </g>
    </g>
</svg>