<?xml version="1.0" encoding="UTF-8"?>
<svg width="72px" height="72px" viewBox="0 0 72 72" version="1.1" xmlns="http://www.w3.org/2000/svg" xmlns:xlink="http://www.w3.org/1999/xlink">
    <title>btn_home_settings</title>
    <defs>
        <rect id="path-1" x="0" y="0" width="72" height="72"></rect>
    </defs>
    <g id="2.3.1.0-定稿" stroke="none" stroke-width="1" fill="none" fill-rule="evenodd">
        <g id="首页切图" transform="translate(-516.000000, -84.000000)">
            <g id="btn_home_settings" transform="translate(516.000000, 84.000000)">
                <mask id="mask-2" fill="white">
                    <use xlink:href="#path-1"></use>
                </mask>
                <g id="矩形"></g>
                <path d="M60.8701739,42.7937701 C60.9416723,43.2234157 60.9237977,43.7425707 60.81655,44.3512352 C60.7093023,44.9598997 60.5305562,45.5775152 60.2803116,46.2040816 C60.030067,46.830648 59.7261985,47.3945578 59.3687063,47.895811 C59.011214,48.3970641 58.6179725,48.755102 58.1889817,48.9699248 C57.759991,49.1847476 57.3846241,49.292159 57.062881,49.292159 C56.741138,49.292159 56.3836457,49.2205514 55.9904042,49.0773362 C55.6329119,48.9699248 55.1860465,48.8714644 54.6498081,48.7819549 C54.1135697,48.6924454 53.5683939,48.6745435 53.0142809,48.7282492 C52.4601678,48.7819549 51.9060548,48.8983172 51.3519417,49.0773362 C50.7978287,49.2563552 50.3241514,49.5606874 49.9309099,49.990333 C49.0729284,50.8854279 48.5724392,51.905836 48.4294423,53.0515575 C48.2864454,54.1972789 48.4473169,55.2892947 48.9120569,56.3276047 C49.2695492,57.0436806 49.2159253,57.7597565 48.7511854,58.4758324 C48.53669,58.7622628 48.1970723,59.0576441 47.7323324,59.3619764 C47.2675924,59.6663086 46.7581659,59.943788 46.2040528,60.1944146 C45.6499398,60.4450412 45.0690148,60.641962 44.4612779,60.7851772 C43.8535411,60.9283924 43.3173026,61 42.8525627,61 C42.5308196,61 42.2269512,60.8746867 41.9409573,60.6240602 C41.6549635,60.3734336 41.4583427,60.1049051 41.3510951,59.8184748 L41.2974712,59.8184748 C40.9042297,58.7085571 40.2339317,57.7508056 39.2865771,56.9452202 C38.3392225,56.1396348 37.2399338,55.7368421 35.9887108,55.7368421 C34.773237,55.7368421 33.6739482,56.1396348 32.6908444,56.9452202 C31.7077406,57.7508056 31.019568,58.6906552 30.6263265,59.7647691 C30.4475803,60.1944146 30.1794611,60.5076978 29.8219688,60.7046187 C29.4644766,60.9015396 29.071235,61 28.6422443,61 C28.1417551,61 27.5787047,60.9104905 26.9530932,60.7314715 C26.3274817,60.5524526 25.7018702,60.3286788 25.0762587,60.0601504 C24.4506472,59.7916219 23.8875969,59.4783387 23.3871077,59.1203008 C22.8866185,58.7622628 22.5112516,58.4042248 22.261007,58.0461869 C22.0822609,57.7955603 21.9839505,57.500179 21.9660759,57.160043 C21.9482012,56.8199069 22.0822609,56.3455066 22.3682547,55.7368421 C22.7614962,54.9133548 22.9134304,53.9735052 22.8240573,52.9172932 C22.7346843,51.8610813 22.2788816,50.8854279 21.4566494,49.990333 C20.9561602,49.453276 20.3484233,49.104189 19.6334387,48.943072 C18.9184541,48.7819549 18.2392188,48.7192982 17.5957327,48.755102 C16.8449989,48.7909058 16.0763905,48.934121 15.2899074,49.1847476 C14.7894182,49.3279628 14.288929,49.292159 13.7884398,49.0773362 C13.3951983,48.934121 13.0287687,48.6029359 12.689151,48.0837809 C12.3495334,47.5646259 12.0456649,46.9917651 11.7775457,46.3651987 C11.5094265,45.7386323 11.3038684,45.094164 11.1608715,44.4317938 C11.0178746,43.7694236 10.9821254,43.2234157 11.0536238,42.7937701 C11.1608715,42.0060866 11.5183638,41.5048335 12.1261007,41.2900107 C13.1985776,40.8603652 14.1638067,40.1532402 15.0217882,39.1686359 C15.8797697,38.1840315 16.3087604,37.0830648 16.3087604,35.8657358 C16.3087604,34.6126029 15.8797697,33.5205872 15.0217882,32.5896885 C14.1638067,31.6587898 13.1985776,30.9785177 12.1261007,30.5488722 C11.8043576,30.4414608 11.5362384,30.1818833 11.3217431,29.7701396 C11.1072477,29.358396 11,28.9377014 11,28.5080559 C11,28.0426065 11.0714985,27.5234515 11.2144954,26.9505908 C11.3574923,26.37773 11.5451757,25.8227712 11.7775457,25.2857143 C12.0099157,24.7486574 12.2780349,24.2563552 12.5819034,23.8088077 C12.8857718,23.3612603 13.2164522,23.0300752 13.5739445,22.8152524 C13.8599383,22.6362334 14.1369948,22.5646259 14.405114,22.6004296 C14.6732332,22.6362334 14.9681644,22.707841 15.2899074,22.8152524 C16.3623843,23.244898 17.4795477,23.3791622 18.6413976,23.2180451 C19.8032475,23.056928 20.8310379,22.546724 21.7247686,21.6874329 C22.1537593,21.2577873 22.4665651,20.7296813 22.6631858,20.1031149 C22.8598066,19.4765485 22.9849289,18.858933 23.0385527,18.2502685 C23.0921766,17.641604 23.0921766,17.0866452 23.0385527,16.5853921 C22.9849289,16.0841389 22.9402423,15.726101 22.9044931,15.5112782 C22.8329947,15.2964554 22.7704335,15.0458289 22.7168097,14.7593985 C22.6631858,14.4729681 22.6899977,14.2223416 22.7972454,14.0075188 C23.0117408,13.5062657 23.396045,13.0676692 23.950158,12.6917293 C24.5042711,12.3157895 25.1030707,12.0025063 25.7465568,11.7518797 C26.3900429,11.5012531 27.0156544,11.3132832 27.6233913,11.1879699 C28.2311282,11.0626566 28.7137428,11 29.071235,11 C29.535975,11 29.9024046,11.1521661 30.1705238,11.4564984 C30.438643,11.7608306 30.6263265,12.0741139 30.7335742,12.396348 C31.1268157,13.3630505 31.7703018,14.2133906 32.6640325,14.9473684 C33.5577632,15.6813462 34.6123655,16.0483351 35.8278392,16.0483351 C37.0790622,16.0483351 38.1872883,15.6992481 39.1525175,15.0010741 C40.1177467,14.3029001 40.796982,13.4167562 41.1902235,12.3426423 C41.3332204,12.056212 41.5566531,11.7608306 41.8605216,11.4564984 C42.16439,11.1521661 42.4771958,11 42.7989388,11 C43.299428,11 43.8446037,11.0716076 44.434466,11.2148228 C45.0243283,11.358038 45.6052533,11.5549588 46.1772409,11.8055854 C46.7492286,12.056212 47.2765297,12.3784461 47.7591443,12.7722879 C48.2417589,13.1661296 48.6260631,13.5957752 48.9120569,14.0612245 C49.090803,14.3476549 49.1444269,14.6609381 49.0729284,15.0010741 C49.00143,15.3412102 48.9299315,15.5828858 48.8584331,15.726101 C48.3936931,16.764411 48.2506962,17.8564268 48.4294423,19.0021482 C48.6081885,20.1478697 49.1265523,21.1503759 49.9845338,22.009667 C50.8425152,22.8689581 51.8971175,23.3433584 53.1483405,23.4328679 C54.3995635,23.5223774 55.5614134,23.3165055 56.6338903,22.8152524 C56.9198841,22.6362334 57.2684391,22.5646259 57.6795552,22.6004296 C58.0906713,22.6362334 58.4392263,22.7973505 58.7252201,23.0837809 C59.2614586,23.585034 59.7351358,24.3458647 60.146252,25.3662728 C60.5573681,26.386681 60.8344246,27.4160401 60.9774215,28.4543502 C61.04892,29.0630147 60.9506096,29.537415 60.6824904,29.877551 C60.4143712,30.2176871 60.1373147,30.4414608 59.8513208,30.5488722 C58.7430948,30.9427139 57.7957402,31.631937 57.0092572,32.6165414 C56.2227741,33.6011457 55.8295326,34.7200143 55.8295326,35.9731472 C55.8295326,37.1904762 56.160213,38.2556391 56.8215737,39.1686359 C57.4829344,40.0816327 58.3498532,40.7350519 59.4223301,41.1288937 C59.6725747,41.2721088 59.8870701,41.415324 60.0658162,41.5585392 C60.4590577,41.8807734 60.7271769,42.292517 60.8701739,42.7937701 Z M35.9350869,47.6272825 C37.5438022,47.6272825 39.0631444,47.3229502 40.4931136,46.7142857 C41.9230827,46.1056212 43.1653684,45.264232 44.2199706,44.1901182 C45.2745729,43.1160043 46.1057425,41.8718224 46.7134793,40.4575725 C47.3212162,39.0433226 47.6250847,37.5306122 47.6250847,35.9194415 C47.6250847,34.3082707 47.3212162,32.7955603 46.7134793,31.3813104 C46.1057425,29.9670605 45.2745729,28.7318296 44.2199706,27.6756176 C43.1653684,26.6194057 41.9230827,25.7869674 40.4931136,25.1783029 C39.0631444,24.5696384 37.5438022,24.2653061 35.9350869,24.2653061 C34.3263716,24.2653061 32.8159667,24.5696384 31.4038722,25.1783029 C29.9917777,25.7869674 28.7584293,26.6194057 27.703827,27.6756176 C26.6492248,28.7318296 25.8180552,29.9670605 25.2103184,31.3813104 C24.6025815,32.7955603 24.298713,34.3082707 24.298713,35.9194415 C24.298713,37.5306122 24.6025815,39.0433226 25.2103184,40.4575725 C25.8180552,41.8718224 26.6492248,43.1160043 27.703827,44.1901182 C28.7584293,45.264232 29.9917777,46.1056212 31.4038722,46.7142857 C32.8159667,47.3229502 34.3263716,47.6272825 35.9350869,47.6272825 Z" id="形状" fill-opacity="0.7" fill="#FFFFFF" fill-rule="nonzero" mask="url(#mask-2)"></path>
            </g>
        </g>
    </g>
</svg>