<?xml version="1.0" encoding="UTF-8"?>
<svg width="48px" height="48px" viewBox="0 0 48 48" version="1.1" xmlns="http://www.w3.org/2000/svg" xmlns:xlink="http://www.w3.org/1999/xlink">
    <title>home_ic_photo_del</title>
    <defs>
        <rect id="path-1" x="0" y="0" width="48" height="48"></rect>
    </defs>
    <g id="2.3.1.0-定稿" stroke="none" stroke-width="1" fill="none" fill-rule="evenodd">
        <g id="首页切图" transform="translate(-363.000000, -837.000000)">
            <g id="home_ic_photo_del" transform="translate(363.000000, 837.000000)">
                <mask id="mask-2" fill="white">
                    <use xlink:href="#path-1"></use>
                </mask>
                <g id="矩形"></g>
                <path d="M42.2071068,21.2928932 C43.3116763,21.2928932 44.2071068,22.1883237 44.2071068,23.2928932 C44.2071068,24.3974627 43.3116763,25.2928932 42.2071068,25.2928932 L27.7071068,25.2928932 L27.7071068,39.7928932 C27.7071068,40.8974627 26.8116763,41.7928932 25.7071068,41.7928932 C24.6025373,41.7928932 23.7071068,40.8974627 23.7071068,39.7928932 L23.7071068,25.2928932 L8.20710678,25.2928932 C7.10253728,25.2928932 6.20710678,24.3974627 6.20710678,23.2928932 C6.20710678,22.1883237 7.10253728,21.2928932 8.20710678,21.2928932 L42.2071068,21.2928932 Z M25.7071068,3.79289322 C26.8116763,3.79289322 27.7071068,4.68832372 27.7071068,5.79289322 L27.7071068,15.7928932 C27.7071068,16.8974627 26.8116763,17.7928932 25.7071068,17.7928932 C24.6025373,17.7928932 23.7071068,16.8974627 23.7071068,15.7928932 L23.7071068,5.79289322 C23.7071068,4.68832372 24.6025373,3.79289322 25.7071068,3.79289322 Z" id="形状结合" fill="#ECECEC" mask="url(#mask-2)" transform="translate(25.207107, 22.792893) rotate(-315.000000) translate(-25.207107, -22.792893) "></path>
            </g>
        </g>
    </g>
</svg>