<?xml version="1.0" encoding="UTF-8"?>
<svg width="72px" height="72px" viewBox="0 0 72 72" version="1.1" xmlns="http://www.w3.org/2000/svg" xmlns:xlink="http://www.w3.org/1999/xlink">
    <title>home_nav_tools</title>
    <defs>
        <rect id="path-1" x="0" y="0" width="72" height="72"></rect>
    </defs>
    <g id="2.3.1.0-定稿" stroke="none" stroke-width="1" fill="none" fill-rule="evenodd">
        <g id="首页切图" transform="translate(-296.000000, -1678.000000)">
            <g id="编组-2" transform="translate(296.000000, 1678.000000)">
                <mask id="mask-2" fill="white">
                    <use xlink:href="#path-1"></use>
                </mask>
                <g id="矩形"></g>
                <g id="编组-8" mask="url(#mask-2)" fill="#656566" fill-rule="nonzero">
                    <g transform="translate(9.000000, 6.000000)">
                        <path d="M14.7176426,0 L38.2838528,0 C40.0920849,0 41.5711454,1.46291431 41.5711454,3.24997616 L41.5711454,3.95050933 C41.5711454,5.73763276 40.0921472,7.20048543 38.2838528,7.20048543 L14.7176426,7.20048543 C12.9094104,7.20048543 11.4304123,5.73757112 11.4304123,3.95050933 L11.4304123,3.25003774 C11.4304123,1.46291431 12.9093481,0 14.7176426,0 Z" id="路径"></path>
                        <path d="M15.2734274,5.80015832 L22.3536398,5.80015832 L22.3536398,27.0000339 L15.2734274,27.0000339 L15.2734274,5.80015832 Z M8.44599739,43.3001198 L44.5553733,43.3001198 C49.2004757,43.3001198 53,47.0572617 53,51.6497211 C53,56.2421804 49.2004757,60 44.5553733,60 L8.44599739,60 C3.80089506,60 0,56.2421804 0,51.6497211 C0,47.0572617 3.80095741,43.3001198 8.44599739,43.3001198 Z" id="形状"></path>
                        <polygon id="路径" points="15.2734274 25.2246148 0.65198787 48.4426813 10.2661303 48.0247146 22.3536398 26.9999723"></polygon>
                        <path d="M9.78542634,37.7747045 C15.1855368,35.2582348 20.0903947,34 24.5,34 C28.9096053,34 34.5240132,35.2582348 41.3432238,37.7747045 L41.3432238,50.0748151 L9.78542634,50.0748151 L9.78542634,37.7747045 Z M30.5963895,5.80015832 L37.6766641,5.80015832 L37.6766641,27.0000339 L30.5963895,27.0000339 L30.5963895,5.80015832 Z" id="形状"></path>
                        <polygon id="路径" points="37.6766641 25.2246148 52.2994121 48.4426813 42.6839612 48.0247146 30.5963895 26.9999723"></polygon>
                    </g>
                </g>
            </g>
        </g>
    </g>
</svg>