<?xml version="1.0" encoding="UTF-8"?>
<svg width="60px" height="60px" viewBox="0 0 60 60" version="1.1" xmlns="http://www.w3.org/2000/svg" xmlns:xlink="http://www.w3.org/1999/xlink">
    <title>inspiration_ic_up</title>
    <defs>
        <rect id="path-1" x="0" y="0" width="60" height="60"></rect>
    </defs>
    <g id="2.3.1.0-定稿" stroke="none" stroke-width="1" fill="none" fill-rule="evenodd">
        <g id="首页切图" transform="translate(-276.000000, -527.000000)">
            <g id="inspiration_ic_up" transform="translate(306.000000, 557.000000) rotate(-180.000000) translate(-306.000000, -557.000000) translate(276.000000, 527.000000)">
                <mask id="mask-2" fill="white">
                    <use xlink:href="#path-1"></use>
                </mask>
                <g id="矩形"></g>
                <path d="M15,3.13603897 C17.4852814,3.13603897 19.5,5.1507576 19.5,7.63603897 L19.5,33.135039 L45,33.136039 C47.4852814,33.136039 49.5,35.1507576 49.5,37.636039 C49.5,40.1213203 47.4852814,42.136039 45,42.136039 L15.042357,42.1358438 C15.0282534,42.1359738 15.0141343,42.136039 15,42.136039 C12.5147186,42.136039 10.5,40.1213203 10.5,37.636039 L10.5,7.63603897 C10.5,5.1507576 12.5147186,3.13603897 15,3.13603897 Z" id="形状结合" fill-opacity="0.701083097" fill="#FFFFFF" mask="url(#mask-2)" transform="translate(30.000000, 22.636039) rotate(-45.000000) translate(-30.000000, -22.636039) "></path>
            </g>
        </g>
    </g>
</svg>