<?xml version="1.0" encoding="UTF-8"?>
<svg width="60px" height="60px" viewBox="0 0 60 60" version="1.1" xmlns="http://www.w3.org/2000/svg" xmlns:xlink="http://www.w3.org/1999/xlink">
    <title>prompt_btn_back</title>
    <g id="2.3.1.0-定稿" stroke="none" stroke-width="1" fill="none" fill-rule="evenodd">
        <g id="首页切图" transform="translate(-66.000000, -679.000000)">
            <g id="prompt_btn_back" transform="translate(66.000000, 679.000000)">
                <circle id="椭圆形" fill-opacity="0.201846249" fill="#000000" cx="30" cy="30" r="30"></circle>
                <g id="编组-20" transform="translate(15.000000, 18.000000)" fill="#FFFFFF" fill-opacity="0.7">
                    <path d="M10.2402219,14.3885924 C10.9952444,15.1255903 11.0098562,16.3351119 10.2728583,17.0901344 L10.2402219,17.1227708 C9.46132062,17.8830774 8.21807561,17.8830774 7.43917434,17.1227708 L0.400523781,10.2521533 C0.00139633411,9.86255418 -0.190823691,9.34090856 -0.174481913,8.8241612 C-0.192349116,8.3207884 -0.012166423,7.81057747 0.367887388,7.42122878 L0.400523781,7.38859238 L7.43917434,0.51797488 C8.21807561,-0.242331756 9.46132062,-0.242331756 10.2402219,0.51797488 C10.9952444,1.25497282 11.0098562,2.46449438 10.2728583,3.2195169 C10.2621113,3.23052672 10.2512317,3.24140631 10.2402219,3.25215329 L6.401,6.999 L19,7 C26.627417,7 33,11.7794373 33,18 L33,21 C33,22.1045695 32.1045695,23 31,23 C29.8954305,23 29,22.1045695 29,21 L29,18 C29,14.2794373 24.627417,11 19,11 L6.768,10.999 L10.2402219,14.3885924 Z" id="形状结合"></path>
                </g>
            </g>
        </g>
    </g>
</svg>