<?xml version="1.0" encoding="UTF-8"?>
<svg width="60px" height="60px" viewBox="0 0 60 60" version="1.1" xmlns="http://www.w3.org/2000/svg" xmlns:xlink="http://www.w3.org/1999/xlink">
    <title>prompt_btn_del</title>
    <g id="2.3.1.0-定稿" stroke="none" stroke-width="1" fill="none" fill-rule="evenodd">
        <g id="首页切图" transform="translate(-222.000000, -679.000000)">
            <g id="prompt_btn_del" transform="translate(222.000000, 679.000000)">
                <circle id="椭圆形" fill-opacity="0.201846249" fill="#000000" cx="30" cy="30" r="30"></circle>
                <path d="M21.3281482,17.4427161 L42.2475309,38.3620988 C43.044321,39.1588889 43.044321,40.4507409 42.2475309,41.2475309 C41.4507409,42.044321 40.1588889,42.044321 39.3620988,41.2475309 L30.3451235,32.2311235 L21.3281482,41.2475309 C20.5313581,42.044321 19.2395061,42.044321 18.4427161,41.2475309 C17.645926,40.4507409 17.645926,39.1588889 18.4427161,38.3620988 L27.4591235,29.3451235 L18.4427161,20.3281482 C17.645926,19.5313581 17.645926,18.2395061 18.4427161,17.4427161 C19.2395061,16.645926 20.5313581,16.645926 21.3281482,17.4427161 Z M42.2475309,17.4427161 C43.044321,18.2395061 43.044321,19.5313581 42.2475309,20.3281482 L36.6476817,25.9279974 C35.8508916,26.7247875 34.5590396,26.7247875 33.7622496,25.9279974 C32.9654595,25.1312074 32.9654595,23.8393554 33.7622496,23.0425653 L39.3620988,17.4427161 C40.1588889,16.645926 41.4507409,16.645926 42.2475309,17.4427161 Z" id="形状结合" fill-opacity="0.7" fill="#FFFFFF"></path>
            </g>
        </g>
    </g>
</svg>