<?xml version="1.0" encoding="UTF-8"?>
<svg width="60px" height="60px" viewBox="0 0 60 60" version="1.1" xmlns="http://www.w3.org/2000/svg" xmlns:xlink="http://www.w3.org/1999/xlink">
    <title>setting_ic_fb@2x</title>
    <g id="设计稿" stroke="none" stroke-width="1" fill="none" fill-rule="evenodd">
        <g id="设置界面" transform="translate(-822.000000, -1329.000000)" fill-rule="nonzero">
            <g id="编组-3" transform="translate(48.000000, 306.000000)">
                <g id="编组-2备份-4" transform="translate(0.000000, 972.000000)">
                    <g id="setting_ic_fb" transform="translate(774.000000, 51.000000)">
                        <rect id="矩形备份-3" fill="#ECECEC" x="0" y="0" width="60" height="60" rx="18"></rect>
                        <path d="M27,24.2276742 L31.0708816,24.2276742 L31.0708816,20.2087232 C31.0708816,18.4366148 31.1148425,15.7036 32.3822298,14.0110104 C33.71718,12.2184961 35.5496622,11 38.7016902,11 C43.8373609,11 46,11.7441281 46,11.7441281 L44.9825048,17.8705577 C44.9825048,17.8705577 43.2856885,17.3722151 41.7029182,17.372215 C40.1193372,17.372215 38.7016903,17.9486124 38.7016902,19.5562843 L38.7016902,24.2276742 L45.1940213,24.2276742 L44.7407202,30.2118115 L38.7016902,30.2118115 L38.7016902,51 L31.0708816,51 L31.0708816,30.2118115 L27,30.2118115 L27,24.2276742 L27,24.2276742 Z" id="路径" fill="#252231"></path>
                    </g>
                </g>
            </g>
        </g>
    </g>
</svg>