<?xml version="1.0" encoding="UTF-8"?>
<svg width="60px" height="60px" viewBox="0 0 60 60" version="1.1" xmlns="http://www.w3.org/2000/svg" xmlns:xlink="http://www.w3.org/1999/xlink">
    <title>prompt_btn_next_unable</title>
    <g id="2.3.1.0-定稿" stroke="none" stroke-width="1" fill="none" fill-rule="evenodd">
        <g id="首页切图" transform="translate(-144.000000, -753.000000)">
            <g id="prompt_btn_next_unable" transform="translate(144.000000, 753.000000)">
                <circle id="椭圆形" fill-opacity="0.201846249" fill="#000000" transform="translate(30.000000, 30.000000) scale(-1, 1) translate(-30.000000, -30.000000) " cx="30" cy="30" r="30"></circle>
                <g id="编组-20" transform="translate(31.500000, 29.500000) scale(-1, 1) translate(-31.500000, -29.500000) translate(15.000000, 18.000000)" fill="#888888" fill-opacity="0.2">
                    <path d="M10.5994762,14.3885924 C11.3544987,15.1255903 11.3691106,16.3351119 10.6321126,17.0901344 C10.6213656,17.1011442 10.610486,17.1120238 10.5994762,17.1227708 C9.82057495,17.8830774 8.57732993,17.8830774 7.79842866,17.1227708 L0.759778102,10.2521533 C0.360650655,9.86255418 0.16843063,9.34090856 0.184772408,8.8241612 C0.166905205,8.3207884 0.347087898,7.81057747 0.727141709,7.42122878 C0.737888692,7.41021896 0.748768283,7.39933937 0.759778102,7.38859238 L7.79842866,0.51797488 C8.57732993,-0.242331756 9.82057495,-0.242331756 10.5994762,0.51797488 C11.3544987,1.25497282 11.3691106,2.46449438 10.6321126,3.2195169 C10.6213656,3.23052672 10.610486,3.24140631 10.5994762,3.25215329 L6.759,6.999 L19.0000591,7 C26.6274761,7 33.0000591,11.7794373 33.0000591,18 L33.0000591,21 C33.0000591,22.1045695 32.1046286,23 31.0000591,23 C29.8954896,23 29.0000591,22.1045695 29.0000591,21 L29.0000591,18 C29.0000591,14.2794373 24.6274761,11 19.0000591,11 L7.126,10.999 L10.5994762,14.3885924 Z" id="形状结合"></path>
                </g>
            </g>
        </g>
    </g>
</svg>