<?xml version="1.0" encoding="UTF-8"?>
<svg width="60px" height="60px" viewBox="0 0 60 60" version="1.1" xmlns="http://www.w3.org/2000/svg" xmlns:xlink="http://www.w3.org/1999/xlink">
    <title>setting_ic_tt@2x</title>
    <g id="设计稿" stroke="none" stroke-width="1" fill="none" fill-rule="evenodd">
        <g id="设置界面" transform="translate(-720.000000, -1329.000000)" fill-rule="nonzero">
            <g id="编组-3" transform="translate(48.000000, 306.000000)">
                <g id="编组-2备份-4" transform="translate(0.000000, 972.000000)">
                    <g id="setting_ic_tt" transform="translate(672.000000, 51.000000)">
                        <rect id="矩形备份-4" fill="#ECECEC" x="0" y="0" width="60" height="60" rx="18"></rect>
                        <path d="M42.0110715,19.6932465 C41.7631308,19.562028 41.5224825,19.4235196 41.2818342,19.2704313 C40.596351,18.8184564 39.9764992,18.2862924 39.4149865,17.6885192 C38.0221431,16.0993171 37.5043845,14.4809554 37.3147828,13.3510181 L37.3220752,13.3510181 C37.161643,12.4106187 37.2272743,11.8055556 37.2418591,11.8055556 L30.9047863,11.8055556 L30.9047863,36.3142589 C30.9047863,36.6423052 30.9047863,36.9703515 30.8902015,37.2911079 C30.8902015,37.3275575 30.8829091,37.371297 30.8829091,37.4077466 C30.8829091,37.4223264 30.8829091,37.4441962 30.8756168,37.458776 L30.8756168,37.4733558 C30.861032,37.6920534 30.8318625,37.9107509 30.7881083,38.1221585 C30.744354,38.340856 30.686015,38.5522636 30.6203837,38.7563813 C30.5547523,38.967789 30.4672438,39.1719067 30.372443,39.3687344 C30.2776421,39.5655622 30.1755489,39.76239 30.0515785,39.9446379 C29.9349005,40.1268859 29.8036378,40.3091338 29.6650827,40.4768019 C29.5265276,40.64447 29.3733878,40.8048482 29.2202479,40.9579365 C29.0598157,41.1110248 28.8920911,41.2495332 28.7170741,41.3807517 C28.5420571,41.5119702 28.3597478,41.6286089 28.1628537,41.7379577 C27.7617731,41.9639451 27.3388155,42.1389032 26.8939807,42.2555418 C26.4491459,42.3721805 25.9970187,42.4304999 25.5375991,42.4304999 C22.5841878,42.4304999 20.1922892,40.024827 20.1922892,37.0505406 C20.1922892,34.0762542 22.5841878,31.6705813 25.5375991,31.6705813 C26.0991119,31.6705813 26.64604,31.7580603 27.1856756,31.9330184 L27.192968,25.4814412 C26.7918874,25.4304118 26.3835145,25.4012521 25.9824339,25.3866723 C25.574061,25.3793823 25.1729805,25.3866723 24.7646075,25.4158319 C24.363527,25.4449916 23.955154,25.5033109 23.5613658,25.5762101 C23.1602853,25.6491093 22.7664971,25.7438782 22.3800013,25.853227 C21.9935055,25.9698657 21.6070097,26.1010842 21.2350986,26.2541725 C20.8631875,26.4072607 20.4912765,26.5822188 20.1339502,26.7717566 C19.7766238,26.9612945 19.4265899,27.1727021 19.0911407,27.3986895 C18.7556915,27.624677 18.4348271,27.8725342 18.121255,28.1276813 C17.574327,28.601526 17.0711532,29.1191101 16.619026,29.6804338 C16.1596064,30.2417575 15.7585259,30.8395307 15.4084919,31.4737535 C15.1386741,31.9330184 14.1323265,33.7919474 14.0083562,36.7953935 C13.9281401,38.5012342 14.4458986,40.2726842 14.6865469,41.001676 L14.6865469,41.0162558 C14.8396868,41.446361 15.4376614,42.9189244 16.4075472,44.1582104 C17.1951235,45.1569291 18.1139626,46.0171394 19.1567721,46.7461312 L19.1567721,46.7315513 L19.1713568,46.7461312 C22.2414462,48.8310476 25.6469847,48.6925392 25.6469847,48.6925392 C26.237667,48.6706694 28.2066079,48.6925392 30.4526591,47.6282112 C32.9393585,46.4545344 34.3540791,44.6976643 34.3540791,44.6976643 C34.8062062,44.1727902 35.2072868,43.6187565 35.5646131,43.0209832 C35.9219394,42.4304999 36.2282191,41.8108569 36.4761598,41.1620542 C37.0522574,39.6530412 37.2418591,37.8451416 37.2418591,37.1234398 L37.2418591,24.1400963 C37.3220752,24.1838358 38.3430075,24.8617982 38.3430075,24.8617982 C38.3430075,24.8617982 39.816067,25.8094875 42.1204571,26.4218406 C43.775826,26.8592356 46,26.9540046 46,26.9540046 L46,20.6628056 C45.2124236,20.7502846 43.6299785,20.5024274 42.0110715,19.6932465 L42.0110715,19.6932465 Z" id="路径" fill="#252231"></path>
                    </g>
                </g>
            </g>
        </g>
    </g>
</svg>